<svg width="16" height="16" viewBox="0 0 16 16" fill="none" xmlns="http://www.w3.org/2000/svg">
<path fill-rule="evenodd" clip-rule="evenodd" d="M11.9997 2.66699C12.2046 2.66699 12.3963 2.76106 12.5218 2.9191L12.5713 2.99066L14.5713 6.324C14.7066 6.54949 14.6956 6.83062 14.55 7.04332L14.4965 7.11152L8.80921 13.4669C8.59604 13.6845 8.30427 13.8071 7.99968 13.8071C7.73317 13.8071 7.47647 13.7132 7.25983 13.5292L7.16952 13.4449L1.50285 7.11152C1.32751 6.91555 1.28541 6.63737 1.38833 6.40105L1.42802 6.324L3.43681 2.97627L3.47947 2.91669C3.51002 2.87863 3.54466 2.844 3.58272 2.81345L3.64229 2.77078L3.7009 2.7376L3.73415 2.7221L3.77484 2.70586L3.84682 2.6846L3.92193 2.67148L3.99968 2.66699H11.9997ZM11.6223 4.00033H4.37635L2.82368 6.58833L7.99902 12.373L13.175 6.58833L11.6223 4.00033ZM6.07601 5.29533C5.76029 5.1059 5.35079 5.20827 5.16135 5.52399L4.76135 6.19066L4.72143 6.26823C4.61805 6.50616 4.66165 6.78623 4.83972 6.98211L6.17306 8.44877L6.23315 8.50716C6.48471 8.72272 6.86332 8.72224 7.1148 8.49362L7.17318 8.43352C7.38874 8.18196 7.38826 7.80336 7.15964 7.55188L6.15902 6.45166L6.30468 6.20999L6.34083 6.14101C6.4784 5.83689 6.36918 5.47123 6.07601 5.29533Z" fill="#1E293B"/>
</svg>
