<svg width="231" height="24" viewBox="0 0 231 24" fill="none" xmlns="http://www.w3.org/2000/svg">
<path d="M20.9583 21.8464C21.1989 21.9775 21.4831 22.0977 21.8111 22.2069C22.1391 22.2943 22.4562 22.3598 22.7623 22.4035V22.9607H13.9066V22.4035C14.7157 22.338 15.3388 22.2397 15.7762 22.1086C15.9074 22.0649 16.1151 21.9775 16.3993 21.8464C16.6836 21.7153 16.8257 21.4969 16.8257 21.191C16.8257 21.1691 16.8148 21.0708 16.7929 20.896C16.7929 20.6994 16.7601 20.5246 16.6945 20.3717L14.7266 15.0954H6.29734L6.23175 15.2921C5.99122 15.9256 5.77257 16.5265 5.57577 17.0945C5.37898 17.6625 5.19312 18.2306 5.0182 18.7986C4.75581 19.7163 4.62461 20.3498 4.62461 20.6994C4.62461 20.896 4.70114 21.1145 4.8542 21.3548C5.00726 21.5952 5.33525 21.8027 5.83816 21.9775C6.16615 22.1086 6.516 22.2069 6.88772 22.2725C7.25944 22.3162 7.59836 22.3598 7.90448 22.4035V22.9607H0V22.4035C0.306121 22.3598 0.634108 22.2943 0.98396 22.2069C1.35568 22.0977 1.6618 21.9557 1.90232 21.7809C2.40524 21.475 2.77695 21.1473 3.01748 20.7977C3.258 20.4482 3.48759 20.0003 3.70625 19.4541L7.4781 9.81915L11.0859 0.544718H11.9387L19.4496 19.9129C19.6245 20.3717 19.8213 20.7431 20.04 21.0271C20.2805 21.2893 20.5757 21.5624 20.9256 21.8464H20.9583ZM14.3986 14.3089L10.4956 4.31348L6.65813 14.3089H14.3986Z" fill="#131313"/>
<path d="M20.9583 21.8464C21.1989 21.9775 21.4831 22.0977 21.8111 22.2069C22.1391 22.2943 22.4562 22.3598 22.7623 22.4035V22.9607H13.9066V22.4035C14.7157 22.338 15.3388 22.2397 15.7762 22.1086C15.9074 22.0649 16.1151 21.9775 16.3993 21.8464C16.6836 21.7153 16.8257 21.4969 16.8257 21.191C16.8257 21.1691 16.8148 21.0708 16.7929 20.896C16.7929 20.6994 16.7601 20.5246 16.6945 20.3717L14.7266 15.0954H6.29734L6.23175 15.2921C5.99122 15.9256 5.77257 16.5265 5.57577 17.0945C5.37898 17.6625 5.19312 18.2306 5.0182 18.7986C4.75581 19.7163 4.62461 20.3498 4.62461 20.6994C4.62461 20.896 4.70114 21.1145 4.8542 21.3548C5.00726 21.5952 5.33525 21.8027 5.83816 21.9775C6.16615 22.1086 6.516 22.2069 6.88772 22.2725C7.25944 22.3162 7.59836 22.3598 7.90448 22.4035V22.9607H0V22.4035C0.306121 22.3598 0.634108 22.2943 0.98396 22.2069C1.35568 22.0977 1.6618 21.9557 1.90232 21.7809C2.40524 21.475 2.77695 21.1473 3.01748 20.7977C3.258 20.4482 3.48759 20.0003 3.70625 19.4541L7.4781 9.81915L11.0859 0.544718H11.9387L19.4496 19.9129C19.6245 20.3717 19.8213 20.7431 20.04 21.0271C20.2805 21.2893 20.5757 21.5624 20.9256 21.8464H20.9583ZM14.3986 14.3089L10.4956 4.31348L6.65813 14.3089H14.3986Z" fill="black" fill-opacity="0.2"/>
<path d="M20.9583 21.8464C21.1989 21.9775 21.4831 22.0977 21.8111 22.2069C22.1391 22.2943 22.4562 22.3598 22.7623 22.4035V22.9607H13.9066V22.4035C14.7157 22.338 15.3388 22.2397 15.7762 22.1086C15.9074 22.0649 16.1151 21.9775 16.3993 21.8464C16.6836 21.7153 16.8257 21.4969 16.8257 21.191C16.8257 21.1691 16.8148 21.0708 16.7929 20.896C16.7929 20.6994 16.7601 20.5246 16.6945 20.3717L14.7266 15.0954H6.29734L6.23175 15.2921C5.99122 15.9256 5.77257 16.5265 5.57577 17.0945C5.37898 17.6625 5.19312 18.2306 5.0182 18.7986C4.75581 19.7163 4.62461 20.3498 4.62461 20.6994C4.62461 20.896 4.70114 21.1145 4.8542 21.3548C5.00726 21.5952 5.33525 21.8027 5.83816 21.9775C6.16615 22.1086 6.516 22.2069 6.88772 22.2725C7.25944 22.3162 7.59836 22.3598 7.90448 22.4035V22.9607H0V22.4035C0.306121 22.3598 0.634108 22.2943 0.98396 22.2069C1.35568 22.0977 1.6618 21.9557 1.90232 21.7809C2.40524 21.475 2.77695 21.1473 3.01748 20.7977C3.258 20.4482 3.48759 20.0003 3.70625 19.4541L7.4781 9.81915L11.0859 0.544718H11.9387L19.4496 19.9129C19.6245 20.3717 19.8213 20.7431 20.04 21.0271C20.2805 21.2893 20.5757 21.5624 20.9256 21.8464H20.9583ZM14.3986 14.3089L10.4956 4.31348L6.65813 14.3089H14.3986Z" fill="black" fill-opacity="0.2"/>
<path d="M39.6831 20.7649C40.6889 19.891 41.4761 18.7659 42.0446 17.3895L42.6677 17.6844C41.815 19.6944 40.6889 21.1582 39.2895 22.0758C37.9119 22.9934 36.1517 23.4522 34.0089 23.4522C32.6751 23.4522 31.4178 23.201 30.237 22.6985C29.0563 22.196 27.9849 21.4532 27.0228 20.47C26.0169 19.3995 25.2516 18.1651 24.7269 16.7668C24.224 15.3467 23.9725 13.8064 23.9725 12.146C23.9725 10.42 24.2349 8.836 24.7597 7.39404C25.2844 5.95207 26.0497 4.6849 27.0556 3.5925C28.0395 2.5438 29.1656 1.74635 30.4338 1.20015C31.702 0.653958 33.0577 0.380859 34.5009 0.380859C35.5286 0.380859 36.4797 0.501023 37.3544 0.741349C38.229 0.981675 39.1036 1.37494 39.9782 1.92114L40.2406 2.085L40.9622 0.872437H41.7822L41.9134 8.34442H41.159C40.9841 7.62344 40.7326 6.82599 40.4046 5.95207C40.0766 5.05631 39.6721 4.25886 39.1911 3.55973C38.0322 1.92114 36.5344 1.10184 34.6977 1.10184C33.5825 1.10184 32.5548 1.34217 31.6146 1.82282C30.6962 2.30347 29.8981 3.02445 29.2203 3.98576C28.608 4.85968 28.1161 5.98485 27.7443 7.36126C27.3726 8.78138 27.1868 10.2998 27.1868 11.9166C27.1868 14.866 27.9193 17.3239 29.3843 19.2902C30.8711 21.3002 32.8063 22.3052 35.1896 22.3052C36.0205 22.3052 36.8186 22.1741 37.5839 21.912C38.3711 21.6498 39.0708 21.2675 39.6831 20.7649Z" fill="#131313"/>
<path d="M39.6831 20.7649C40.6889 19.891 41.4761 18.7659 42.0446 17.3895L42.6677 17.6844C41.815 19.6944 40.6889 21.1582 39.2895 22.0758C37.9119 22.9934 36.1517 23.4522 34.0089 23.4522C32.6751 23.4522 31.4178 23.201 30.237 22.6985C29.0563 22.196 27.9849 21.4532 27.0228 20.47C26.0169 19.3995 25.2516 18.1651 24.7269 16.7668C24.224 15.3467 23.9725 13.8064 23.9725 12.146C23.9725 10.42 24.2349 8.836 24.7597 7.39404C25.2844 5.95207 26.0497 4.6849 27.0556 3.5925C28.0395 2.5438 29.1656 1.74635 30.4338 1.20015C31.702 0.653958 33.0577 0.380859 34.5009 0.380859C35.5286 0.380859 36.4797 0.501023 37.3544 0.741349C38.229 0.981675 39.1036 1.37494 39.9782 1.92114L40.2406 2.085L40.9622 0.872437H41.7822L41.9134 8.34442H41.159C40.9841 7.62344 40.7326 6.82599 40.4046 5.95207C40.0766 5.05631 39.6721 4.25886 39.1911 3.55973C38.0322 1.92114 36.5344 1.10184 34.6977 1.10184C33.5825 1.10184 32.5548 1.34217 31.6146 1.82282C30.6962 2.30347 29.8981 3.02445 29.2203 3.98576C28.608 4.85968 28.1161 5.98485 27.7443 7.36126C27.3726 8.78138 27.1868 10.2998 27.1868 11.9166C27.1868 14.866 27.9193 17.3239 29.3843 19.2902C30.8711 21.3002 32.8063 22.3052 35.1896 22.3052C36.0205 22.3052 36.8186 22.1741 37.5839 21.912C38.3711 21.6498 39.0708 21.2675 39.6831 20.7649Z" fill="black" fill-opacity="0.2"/>
<path d="M39.6831 20.7649C40.6889 19.891 41.4761 18.7659 42.0446 17.3895L42.6677 17.6844C41.815 19.6944 40.6889 21.1582 39.2895 22.0758C37.9119 22.9934 36.1517 23.4522 34.0089 23.4522C32.6751 23.4522 31.4178 23.201 30.237 22.6985C29.0563 22.196 27.9849 21.4532 27.0228 20.47C26.0169 19.3995 25.2516 18.1651 24.7269 16.7668C24.224 15.3467 23.9725 13.8064 23.9725 12.146C23.9725 10.42 24.2349 8.836 24.7597 7.39404C25.2844 5.95207 26.0497 4.6849 27.0556 3.5925C28.0395 2.5438 29.1656 1.74635 30.4338 1.20015C31.702 0.653958 33.0577 0.380859 34.5009 0.380859C35.5286 0.380859 36.4797 0.501023 37.3544 0.741349C38.229 0.981675 39.1036 1.37494 39.9782 1.92114L40.2406 2.085L40.9622 0.872437H41.7822L41.9134 8.34442H41.159C40.9841 7.62344 40.7326 6.82599 40.4046 5.95207C40.0766 5.05631 39.6721 4.25886 39.1911 3.55973C38.0322 1.92114 36.5344 1.10184 34.6977 1.10184C33.5825 1.10184 32.5548 1.34217 31.6146 1.82282C30.6962 2.30347 29.8981 3.02445 29.2203 3.98576C28.608 4.85968 28.1161 5.98485 27.7443 7.36126C27.3726 8.78138 27.1868 10.2998 27.1868 11.9166C27.1868 14.866 27.9193 17.3239 29.3843 19.2902C30.8711 21.3002 32.8063 22.3052 35.1896 22.3052C36.0205 22.3052 36.8186 22.1741 37.5839 21.912C38.3711 21.6498 39.0708 21.2675 39.6831 20.7649Z" fill="black" fill-opacity="0.2"/>
<path d="M64.0066 21.8464C64.2471 21.9775 64.5314 22.0977 64.8594 22.2069C65.1873 22.2943 65.5044 22.3598 65.8105 22.4035V22.9607H56.9549V22.4035C57.7639 22.338 58.3871 22.2397 58.8244 22.1086C58.9556 22.0649 59.1633 21.9775 59.4476 21.8464C59.7318 21.7153 59.874 21.4969 59.874 21.191C59.874 21.1691 59.863 21.0708 59.8412 20.896C59.8412 20.6994 59.8084 20.5246 59.7428 20.3717L57.7749 15.0954H49.3456L49.28 15.2921C49.0395 15.9256 48.8208 16.5265 48.624 17.0945C48.4272 17.6625 48.2414 18.2306 48.0664 18.7986C47.8041 19.7163 47.6729 20.3498 47.6729 20.6994C47.6729 20.896 47.7494 21.1145 47.9025 21.3548C48.0555 21.5952 48.3835 21.8027 48.8864 21.9775C49.2144 22.1086 49.5643 22.2069 49.936 22.2725C50.3077 22.3162 50.6466 22.3598 50.9527 22.4035V22.9607H43.0483V22.4035C43.3544 22.3598 43.6824 22.2943 44.0322 22.2069C44.4039 22.0977 44.7101 21.9557 44.9506 21.7809C45.4535 21.475 45.8252 21.1473 46.0657 20.7977C46.3063 20.4482 46.5358 20.0003 46.7545 19.4541L50.5263 9.81915L54.1342 0.544718H54.987L62.4979 19.9129C62.6728 20.3717 62.8696 20.7431 63.0882 21.0271C63.3288 21.2893 63.624 21.5624 63.9738 21.8464H64.0066ZM57.4469 14.3089L53.5438 4.31348L49.7064 14.3089H57.4469Z" fill="#131313"/>
<path d="M64.0066 21.8464C64.2471 21.9775 64.5314 22.0977 64.8594 22.2069C65.1873 22.2943 65.5044 22.3598 65.8105 22.4035V22.9607H56.9549V22.4035C57.7639 22.338 58.3871 22.2397 58.8244 22.1086C58.9556 22.0649 59.1633 21.9775 59.4476 21.8464C59.7318 21.7153 59.874 21.4969 59.874 21.191C59.874 21.1691 59.863 21.0708 59.8412 20.896C59.8412 20.6994 59.8084 20.5246 59.7428 20.3717L57.7749 15.0954H49.3456L49.28 15.2921C49.0395 15.9256 48.8208 16.5265 48.624 17.0945C48.4272 17.6625 48.2414 18.2306 48.0664 18.7986C47.8041 19.7163 47.6729 20.3498 47.6729 20.6994C47.6729 20.896 47.7494 21.1145 47.9025 21.3548C48.0555 21.5952 48.3835 21.8027 48.8864 21.9775C49.2144 22.1086 49.5643 22.2069 49.936 22.2725C50.3077 22.3162 50.6466 22.3598 50.9527 22.4035V22.9607H43.0483V22.4035C43.3544 22.3598 43.6824 22.2943 44.0322 22.2069C44.4039 22.0977 44.7101 21.9557 44.9506 21.7809C45.4535 21.475 45.8252 21.1473 46.0657 20.7977C46.3063 20.4482 46.5358 20.0003 46.7545 19.4541L50.5263 9.81915L54.1342 0.544718H54.987L62.4979 19.9129C62.6728 20.3717 62.8696 20.7431 63.0882 21.0271C63.3288 21.2893 63.624 21.5624 63.9738 21.8464H64.0066ZM57.4469 14.3089L53.5438 4.31348L49.7064 14.3089H57.4469Z" fill="black" fill-opacity="0.2"/>
<path d="M64.0066 21.8464C64.2471 21.9775 64.5314 22.0977 64.8594 22.2069C65.1873 22.2943 65.5044 22.3598 65.8105 22.4035V22.9607H56.9549V22.4035C57.7639 22.338 58.3871 22.2397 58.8244 22.1086C58.9556 22.0649 59.1633 21.9775 59.4476 21.8464C59.7318 21.7153 59.874 21.4969 59.874 21.191C59.874 21.1691 59.863 21.0708 59.8412 20.896C59.8412 20.6994 59.8084 20.5246 59.7428 20.3717L57.7749 15.0954H49.3456L49.28 15.2921C49.0395 15.9256 48.8208 16.5265 48.624 17.0945C48.4272 17.6625 48.2414 18.2306 48.0664 18.7986C47.8041 19.7163 47.6729 20.3498 47.6729 20.6994C47.6729 20.896 47.7494 21.1145 47.9025 21.3548C48.0555 21.5952 48.3835 21.8027 48.8864 21.9775C49.2144 22.1086 49.5643 22.2069 49.936 22.2725C50.3077 22.3162 50.6466 22.3598 50.9527 22.4035V22.9607H43.0483V22.4035C43.3544 22.3598 43.6824 22.2943 44.0322 22.2069C44.4039 22.0977 44.7101 21.9557 44.9506 21.7809C45.4535 21.475 45.8252 21.1473 46.0657 20.7977C46.3063 20.4482 46.5358 20.0003 46.7545 19.4541L50.5263 9.81915L54.1342 0.544718H54.987L62.4979 19.9129C62.6728 20.3717 62.8696 20.7431 63.0882 21.0271C63.3288 21.2893 63.624 21.5624 63.9738 21.8464H64.0066ZM57.4469 14.3089L53.5438 4.31348L49.7064 14.3089H57.4469Z" fill="black" fill-opacity="0.2"/>
<path d="M84.5352 3.13369C87.2903 5.16555 88.6679 8.13686 88.6679 12.0476C88.6679 13.7955 88.3508 15.3685 87.7167 16.7668C87.0826 18.1432 86.1424 19.323 84.896 20.3061C83.7809 21.1801 82.5126 21.8464 81.0914 22.3052C79.692 22.7422 78.1942 22.9607 76.598 22.9607H67.4799V22.4035C67.8079 22.4035 68.1796 22.3817 68.5951 22.338C69.0324 22.2943 69.3385 22.2288 69.5134 22.1414C70.235 21.7918 70.5958 21.1582 70.5958 20.2406V3.85468C70.5958 2.91522 70.235 2.2707 69.5134 1.92114V1.88836C69.2073 1.75728 68.8903 1.65896 68.5623 1.59342C68.2343 1.50603 67.9172 1.44048 67.6111 1.39679V0.872437H77.2539C78.5659 0.872437 79.8559 1.06907 81.1242 1.46233C82.4142 1.85559 83.5513 2.41271 84.5352 3.13369ZM83.4529 19.4213C84.1307 18.46 84.6227 17.3895 84.9288 16.2097C85.2349 15.0299 85.388 13.6316 85.388 12.0149C85.388 10.4637 85.1912 9.0654 84.7976 7.82007C84.3603 6.55289 83.7371 5.43865 82.9281 4.47734C82.1191 3.51603 81.157 2.79505 80.0418 2.3144C78.9267 1.8119 77.7131 1.56064 76.4012 1.56064C75.9638 1.56064 75.4719 1.57157 74.9252 1.59342C74.3786 1.59342 73.9631 1.60434 73.6789 1.62619H73.3837V19.3558C73.3837 20.4263 73.7117 21.191 74.3676 21.6498C74.9361 22.0649 75.8654 22.2725 77.1555 22.2725C78.5112 22.2725 79.7466 22.0212 80.8618 21.5187C81.3647 21.2784 81.8348 20.9834 82.2721 20.6339C82.7094 20.2843 83.103 19.8801 83.4529 19.4213Z" fill="#131313"/>
<path d="M84.5352 3.13369C87.2903 5.16555 88.6679 8.13686 88.6679 12.0476C88.6679 13.7955 88.3508 15.3685 87.7167 16.7668C87.0826 18.1432 86.1424 19.323 84.896 20.3061C83.7809 21.1801 82.5126 21.8464 81.0914 22.3052C79.692 22.7422 78.1942 22.9607 76.598 22.9607H67.4799V22.4035C67.8079 22.4035 68.1796 22.3817 68.5951 22.338C69.0324 22.2943 69.3385 22.2288 69.5134 22.1414C70.235 21.7918 70.5958 21.1582 70.5958 20.2406V3.85468C70.5958 2.91522 70.235 2.2707 69.5134 1.92114V1.88836C69.2073 1.75728 68.8903 1.65896 68.5623 1.59342C68.2343 1.50603 67.9172 1.44048 67.6111 1.39679V0.872437H77.2539C78.5659 0.872437 79.8559 1.06907 81.1242 1.46233C82.4142 1.85559 83.5513 2.41271 84.5352 3.13369ZM83.4529 19.4213C84.1307 18.46 84.6227 17.3895 84.9288 16.2097C85.2349 15.0299 85.388 13.6316 85.388 12.0149C85.388 10.4637 85.1912 9.0654 84.7976 7.82007C84.3603 6.55289 83.7371 5.43865 82.9281 4.47734C82.1191 3.51603 81.157 2.79505 80.0418 2.3144C78.9267 1.8119 77.7131 1.56064 76.4012 1.56064C75.9638 1.56064 75.4719 1.57157 74.9252 1.59342C74.3786 1.59342 73.9631 1.60434 73.6789 1.62619H73.3837V19.3558C73.3837 20.4263 73.7117 21.191 74.3676 21.6498C74.9361 22.0649 75.8654 22.2725 77.1555 22.2725C78.5112 22.2725 79.7466 22.0212 80.8618 21.5187C81.3647 21.2784 81.8348 20.9834 82.2721 20.6339C82.7094 20.2843 83.103 19.8801 83.4529 19.4213Z" fill="black" fill-opacity="0.2"/>
<path d="M84.5352 3.13369C87.2903 5.16555 88.6679 8.13686 88.6679 12.0476C88.6679 13.7955 88.3508 15.3685 87.7167 16.7668C87.0826 18.1432 86.1424 19.323 84.896 20.3061C83.7809 21.1801 82.5126 21.8464 81.0914 22.3052C79.692 22.7422 78.1942 22.9607 76.598 22.9607H67.4799V22.4035C67.8079 22.4035 68.1796 22.3817 68.5951 22.338C69.0324 22.2943 69.3385 22.2288 69.5134 22.1414C70.235 21.7918 70.5958 21.1582 70.5958 20.2406V3.85468C70.5958 2.91522 70.235 2.2707 69.5134 1.92114V1.88836C69.2073 1.75728 68.8903 1.65896 68.5623 1.59342C68.2343 1.50603 67.9172 1.44048 67.6111 1.39679V0.872437H77.2539C78.5659 0.872437 79.8559 1.06907 81.1242 1.46233C82.4142 1.85559 83.5513 2.41271 84.5352 3.13369ZM83.4529 19.4213C84.1307 18.46 84.6227 17.3895 84.9288 16.2097C85.2349 15.0299 85.388 13.6316 85.388 12.0149C85.388 10.4637 85.1912 9.0654 84.7976 7.82007C84.3603 6.55289 83.7371 5.43865 82.9281 4.47734C82.1191 3.51603 81.157 2.79505 80.0418 2.3144C78.9267 1.8119 77.7131 1.56064 76.4012 1.56064C75.9638 1.56064 75.4719 1.57157 74.9252 1.59342C74.3786 1.59342 73.9631 1.60434 73.6789 1.62619H73.3837V19.3558C73.3837 20.4263 73.7117 21.191 74.3676 21.6498C74.9361 22.0649 75.8654 22.2725 77.1555 22.2725C78.5112 22.2725 79.7466 22.0212 80.8618 21.5187C81.3647 21.2784 81.8348 20.9834 82.2721 20.6339C82.7094 20.2843 83.103 19.8801 83.4529 19.4213Z" fill="black" fill-opacity="0.2"/>
<path d="M110.578 21.8464C110.819 21.9775 111.103 22.0977 111.431 22.2069C111.759 22.2943 112.076 22.3598 112.382 22.4035V22.9607H103.526V22.4035C104.335 22.338 104.959 22.2397 105.396 22.1086C105.527 22.0649 105.735 21.9775 106.019 21.8464C106.303 21.7153 106.446 21.4969 106.446 21.191C106.446 21.1691 106.435 21.0708 106.413 20.896C106.413 20.6994 106.38 20.5246 106.314 20.3717L104.346 15.0954H95.9171L95.8515 15.2921C95.611 15.9256 95.3924 16.5265 95.1956 17.0945C94.9988 17.6625 94.8129 18.2306 94.638 18.7986C94.3756 19.7163 94.2444 20.3498 94.2444 20.6994C94.2444 20.896 94.3209 21.1145 94.474 21.3548C94.6271 21.5952 94.955 21.8027 95.458 21.9775C95.7859 22.1086 96.1358 22.2069 96.5075 22.2725C96.8792 22.3162 97.2181 22.3598 97.5243 22.4035V22.9607H89.6198V22.4035C89.9259 22.3598 90.2539 22.2943 90.6038 22.2069C90.9755 22.0977 91.2816 21.9557 91.5221 21.7809C92.025 21.475 92.3967 21.1473 92.6373 20.7977C92.8778 20.4482 93.1074 20.0003 93.326 19.4541L97.0979 9.81915L100.706 0.544718H101.559L109.069 19.9129C109.244 20.3717 109.441 20.7431 109.66 21.0271C109.9 21.2893 110.195 21.5624 110.545 21.8464H110.578ZM104.018 14.3089L100.115 4.31348L96.2779 14.3089H104.018Z" fill="#131313"/>
<path d="M110.578 21.8464C110.819 21.9775 111.103 22.0977 111.431 22.2069C111.759 22.2943 112.076 22.3598 112.382 22.4035V22.9607H103.526V22.4035C104.335 22.338 104.959 22.2397 105.396 22.1086C105.527 22.0649 105.735 21.9775 106.019 21.8464C106.303 21.7153 106.446 21.4969 106.446 21.191C106.446 21.1691 106.435 21.0708 106.413 20.896C106.413 20.6994 106.38 20.5246 106.314 20.3717L104.346 15.0954H95.9171L95.8515 15.2921C95.611 15.9256 95.3924 16.5265 95.1956 17.0945C94.9988 17.6625 94.8129 18.2306 94.638 18.7986C94.3756 19.7163 94.2444 20.3498 94.2444 20.6994C94.2444 20.896 94.3209 21.1145 94.474 21.3548C94.6271 21.5952 94.955 21.8027 95.458 21.9775C95.7859 22.1086 96.1358 22.2069 96.5075 22.2725C96.8792 22.3162 97.2181 22.3598 97.5243 22.4035V22.9607H89.6198V22.4035C89.9259 22.3598 90.2539 22.2943 90.6038 22.2069C90.9755 22.0977 91.2816 21.9557 91.5221 21.7809C92.025 21.475 92.3967 21.1473 92.6373 20.7977C92.8778 20.4482 93.1074 20.0003 93.326 19.4541L97.0979 9.81915L100.706 0.544718H101.559L109.069 19.9129C109.244 20.3717 109.441 20.7431 109.66 21.0271C109.9 21.2893 110.195 21.5624 110.545 21.8464H110.578ZM104.018 14.3089L100.115 4.31348L96.2779 14.3089H104.018Z" fill="black" fill-opacity="0.2"/>
<path d="M110.578 21.8464C110.819 21.9775 111.103 22.0977 111.431 22.2069C111.759 22.2943 112.076 22.3598 112.382 22.4035V22.9607H103.526V22.4035C104.335 22.338 104.959 22.2397 105.396 22.1086C105.527 22.0649 105.735 21.9775 106.019 21.8464C106.303 21.7153 106.446 21.4969 106.446 21.191C106.446 21.1691 106.435 21.0708 106.413 20.896C106.413 20.6994 106.38 20.5246 106.314 20.3717L104.346 15.0954H95.9171L95.8515 15.2921C95.611 15.9256 95.3924 16.5265 95.1956 17.0945C94.9988 17.6625 94.8129 18.2306 94.638 18.7986C94.3756 19.7163 94.2444 20.3498 94.2444 20.6994C94.2444 20.896 94.3209 21.1145 94.474 21.3548C94.6271 21.5952 94.955 21.8027 95.458 21.9775C95.7859 22.1086 96.1358 22.2069 96.5075 22.2725C96.8792 22.3162 97.2181 22.3598 97.5243 22.4035V22.9607H89.6198V22.4035C89.9259 22.3598 90.2539 22.2943 90.6038 22.2069C90.9755 22.0977 91.2816 21.9557 91.5221 21.7809C92.025 21.475 92.3967 21.1473 92.6373 20.7977C92.8778 20.4482 93.1074 20.0003 93.326 19.4541L97.0979 9.81915L100.706 0.544718H101.559L109.069 19.9129C109.244 20.3717 109.441 20.7431 109.66 21.0271C109.9 21.2893 110.195 21.5624 110.545 21.8464H110.578ZM104.018 14.3089L100.115 4.31348L96.2779 14.3089H104.018Z" fill="black" fill-opacity="0.2"/>
<path d="M139.93 3.10092C139.93 2.79505 139.831 2.5438 139.634 2.34717C139.438 2.12869 139.186 1.95391 138.88 1.82282C138.596 1.69173 138.257 1.60434 137.863 1.56064C137.492 1.4951 137.131 1.44048 136.781 1.39679V0.872437H144.39V1.39679C144.15 1.44048 143.876 1.51695 143.57 1.62619C143.264 1.73543 142.958 1.87744 142.652 2.05222C142.215 2.33625 141.876 2.64212 141.635 2.96984C141.395 3.27571 141.187 3.71266 141.012 4.28071C140.159 7.16463 139.23 10.2343 138.224 13.4896C137.24 16.7231 136.234 19.9675 135.207 23.2228H134.19L128.22 5.10001L122.022 23.2228H121.07C120.546 21.4313 120.021 19.6179 119.496 17.7827C118.993 15.9475 118.457 14.0467 117.889 12.0804L117.823 11.8182L115.56 3.78913C115.407 3.0463 114.97 2.44549 114.248 1.98668C114.008 1.8119 113.723 1.68081 113.395 1.59342C113.089 1.50603 112.794 1.44048 112.51 1.39679V0.872437H121.136V1.39679C120.83 1.41863 120.513 1.45141 120.185 1.4951C119.857 1.51695 119.562 1.56065 119.299 1.62619C119.234 1.64804 119.135 1.68081 119.004 1.72451C118.895 1.74635 118.774 1.79005 118.643 1.85559C118.512 1.92114 118.403 2.00853 118.315 2.11777C118.228 2.22701 118.184 2.35809 118.184 2.51103C118.184 2.62027 118.195 2.72951 118.217 2.83875C118.239 2.92614 118.261 3.02446 118.283 3.13369C118.304 3.17739 118.315 3.22109 118.315 3.26478C118.315 3.30848 118.326 3.35217 118.348 3.39587V3.42864L119.66 8.11502C119.769 8.53013 119.89 8.96708 120.021 9.42589C120.152 9.8847 120.305 10.3981 120.48 10.9662C120.742 11.8838 121.038 12.9106 121.366 14.0467C121.715 15.1828 122.076 16.4391 122.448 17.8155L122.71 18.7659L128.647 1.20015H129.762L135.731 19.1264L135.994 18.176C136.431 16.6685 136.825 15.3139 137.175 14.1123C137.524 12.9106 137.831 11.8292 138.093 10.8679C138.355 9.8847 138.585 9.01078 138.782 8.2461C139 7.48143 139.186 6.78229 139.339 6.14871C139.47 5.66805 139.569 5.26386 139.634 4.93615C139.722 4.60843 139.787 4.33533 139.831 4.11685C139.875 3.87652 139.897 3.67989 139.897 3.52696C139.919 3.37402 139.93 3.23201 139.93 3.10092Z" fill="#131313"/>
<path d="M139.93 3.10092C139.93 2.79505 139.831 2.5438 139.634 2.34717C139.438 2.12869 139.186 1.95391 138.88 1.82282C138.596 1.69173 138.257 1.60434 137.863 1.56064C137.492 1.4951 137.131 1.44048 136.781 1.39679V0.872437H144.39V1.39679C144.15 1.44048 143.876 1.51695 143.57 1.62619C143.264 1.73543 142.958 1.87744 142.652 2.05222C142.215 2.33625 141.876 2.64212 141.635 2.96984C141.395 3.27571 141.187 3.71266 141.012 4.28071C140.159 7.16463 139.23 10.2343 138.224 13.4896C137.24 16.7231 136.234 19.9675 135.207 23.2228H134.19L128.22 5.10001L122.022 23.2228H121.07C120.546 21.4313 120.021 19.6179 119.496 17.7827C118.993 15.9475 118.457 14.0467 117.889 12.0804L117.823 11.8182L115.56 3.78913C115.407 3.0463 114.97 2.44549 114.248 1.98668C114.008 1.8119 113.723 1.68081 113.395 1.59342C113.089 1.50603 112.794 1.44048 112.51 1.39679V0.872437H121.136V1.39679C120.83 1.41863 120.513 1.45141 120.185 1.4951C119.857 1.51695 119.562 1.56065 119.299 1.62619C119.234 1.64804 119.135 1.68081 119.004 1.72451C118.895 1.74635 118.774 1.79005 118.643 1.85559C118.512 1.92114 118.403 2.00853 118.315 2.11777C118.228 2.22701 118.184 2.35809 118.184 2.51103C118.184 2.62027 118.195 2.72951 118.217 2.83875C118.239 2.92614 118.261 3.02446 118.283 3.13369C118.304 3.17739 118.315 3.22109 118.315 3.26478C118.315 3.30848 118.326 3.35217 118.348 3.39587V3.42864L119.66 8.11502C119.769 8.53013 119.89 8.96708 120.021 9.42589C120.152 9.8847 120.305 10.3981 120.48 10.9662C120.742 11.8838 121.038 12.9106 121.366 14.0467C121.715 15.1828 122.076 16.4391 122.448 17.8155L122.71 18.7659L128.647 1.20015H129.762L135.731 19.1264L135.994 18.176C136.431 16.6685 136.825 15.3139 137.175 14.1123C137.524 12.9106 137.831 11.8292 138.093 10.8679C138.355 9.8847 138.585 9.01078 138.782 8.2461C139 7.48143 139.186 6.78229 139.339 6.14871C139.47 5.66805 139.569 5.26386 139.634 4.93615C139.722 4.60843 139.787 4.33533 139.831 4.11685C139.875 3.87652 139.897 3.67989 139.897 3.52696C139.919 3.37402 139.93 3.23201 139.93 3.10092Z" fill="black" fill-opacity="0.2"/>
<path d="M139.93 3.10092C139.93 2.79505 139.831 2.5438 139.634 2.34717C139.438 2.12869 139.186 1.95391 138.88 1.82282C138.596 1.69173 138.257 1.60434 137.863 1.56064C137.492 1.4951 137.131 1.44048 136.781 1.39679V0.872437H144.39V1.39679C144.15 1.44048 143.876 1.51695 143.57 1.62619C143.264 1.73543 142.958 1.87744 142.652 2.05222C142.215 2.33625 141.876 2.64212 141.635 2.96984C141.395 3.27571 141.187 3.71266 141.012 4.28071C140.159 7.16463 139.23 10.2343 138.224 13.4896C137.24 16.7231 136.234 19.9675 135.207 23.2228H134.19L128.22 5.10001L122.022 23.2228H121.07C120.546 21.4313 120.021 19.6179 119.496 17.7827C118.993 15.9475 118.457 14.0467 117.889 12.0804L117.823 11.8182L115.56 3.78913C115.407 3.0463 114.97 2.44549 114.248 1.98668C114.008 1.8119 113.723 1.68081 113.395 1.59342C113.089 1.50603 112.794 1.44048 112.51 1.39679V0.872437H121.136V1.39679C120.83 1.41863 120.513 1.45141 120.185 1.4951C119.857 1.51695 119.562 1.56065 119.299 1.62619C119.234 1.64804 119.135 1.68081 119.004 1.72451C118.895 1.74635 118.774 1.79005 118.643 1.85559C118.512 1.92114 118.403 2.00853 118.315 2.11777C118.228 2.22701 118.184 2.35809 118.184 2.51103C118.184 2.62027 118.195 2.72951 118.217 2.83875C118.239 2.92614 118.261 3.02446 118.283 3.13369C118.304 3.17739 118.315 3.22109 118.315 3.26478C118.315 3.30848 118.326 3.35217 118.348 3.39587V3.42864L119.66 8.11502C119.769 8.53013 119.89 8.96708 120.021 9.42589C120.152 9.8847 120.305 10.3981 120.48 10.9662C120.742 11.8838 121.038 12.9106 121.366 14.0467C121.715 15.1828 122.076 16.4391 122.448 17.8155L122.71 18.7659L128.647 1.20015H129.762L135.731 19.1264L135.994 18.176C136.431 16.6685 136.825 15.3139 137.175 14.1123C137.524 12.9106 137.831 11.8292 138.093 10.8679C138.355 9.8847 138.585 9.01078 138.782 8.2461C139 7.48143 139.186 6.78229 139.339 6.14871C139.47 5.66805 139.569 5.26386 139.634 4.93615C139.722 4.60843 139.787 4.33533 139.831 4.11685C139.875 3.87652 139.897 3.67989 139.897 3.52696C139.919 3.37402 139.93 3.23201 139.93 3.10092Z" fill="black" fill-opacity="0.2"/>
<path d="M157.103 24C163.736 24 169.113 18.6274 169.113 12C169.113 5.37258 163.736 0 157.103 0C150.47 0 145.093 5.37258 145.093 12C145.093 18.6274 150.47 24 157.103 24Z" fill="#0000FF"/>
<path fill-rule="evenodd" clip-rule="evenodd" d="M149.973 10.1032L151.527 10.8764C151.51 11.7543 151.445 13.4276 151.271 14.2151C151.071 15.1192 149.879 16.0973 149.77 16.4279C150.478 16.4292 150.715 16.1025 151.194 15.969C151.552 16.2708 151.457 16.7238 151.779 16.9065C152.421 16.7147 152.266 14.8043 152.217 14.2937C152.118 13.2855 152.22 12.2728 152.261 11.2678C152.548 11.3327 156.281 13.1782 156.848 13.4577C157.432 13.7451 157.231 13.7202 158.385 13.1376C159.385 12.6322 160.378 12.1431 161.393 11.6403C161.883 11.3975 164.174 10.2963 164.437 10.1032L160.87 8.56146C160.384 8.36179 157.46 7.06162 157.245 7.09436C156.996 7.13233 150.075 10.0207 149.973 10.1032Z" fill="white"/>
<path fill-rule="evenodd" clip-rule="evenodd" d="M153.465 13.9039C153.608 14.1246 156.811 15.917 157.279 16.1802L159.158 15.0797C159.731 14.7413 160.507 14.3256 161.014 13.9675L161.015 12.2693C160.428 12.4611 157.527 14.135 157.289 14.1193C156.947 14.0971 154.09 12.4643 153.466 12.2607V13.9039H153.465Z" fill="white"/>
<path d="M189.429 21.9775C189.67 22.0867 189.965 22.1851 190.315 22.2725C190.686 22.338 191.025 22.3817 191.331 22.4035V22.9607H185.69C184.597 21.2128 183.405 19.4213 182.115 17.5861C181.612 16.8651 181.087 16.1441 180.541 15.4231C179.994 14.7022 179.425 13.9593 178.835 13.1947L178.441 12.6703H175.654V20.1751C175.654 20.5683 175.719 20.9507 175.85 21.3221C175.982 21.6716 176.299 21.9338 176.802 22.1086C176.998 22.1741 177.294 22.2397 177.687 22.3052C178.103 22.3489 178.474 22.3817 178.802 22.4035V22.9607H169.815V22.4035C170.122 22.3817 170.471 22.3489 170.865 22.3052C171.28 22.2397 171.576 22.1741 171.751 22.1086H171.783C172.505 21.759 172.866 21.1145 172.866 20.1751V3.75636C172.866 3.38494 172.8 3.01353 172.669 2.64212C172.56 2.24885 172.253 1.96483 171.751 1.79005C171.51 1.7245 171.204 1.65896 170.832 1.59342C170.482 1.50603 170.143 1.44048 169.815 1.39679V0.872437H180.016C182.027 0.872437 183.635 1.2657 184.837 2.05222C186.171 2.96984 186.838 4.26978 186.838 5.95207C186.838 7.63436 186.357 8.91246 185.395 9.78638H185.362C184.509 10.6384 183.23 11.3048 181.525 11.7855L181.098 11.9165L181.361 12.277C181.885 12.9543 182.355 13.577 182.771 14.145C183.208 14.7131 183.613 15.2374 183.984 15.7181L184.181 16.013L186.904 19.7162C187.363 20.3498 187.789 20.8305 188.183 21.1582C188.576 21.4641 188.992 21.7263 189.429 21.9447V21.9775ZM178.081 11.9165C178.846 11.9165 179.557 11.7855 180.213 11.5233C180.89 11.2611 181.47 10.8897 181.951 10.409C183 9.40404 183.525 8.03855 183.525 6.31256C183.525 4.82691 183.11 3.66897 182.279 2.83875C181.426 1.98668 180.234 1.56064 178.704 1.56064H175.654V11.9165H178.081Z" fill="#131313"/>
<path d="M189.429 21.9775C189.67 22.0867 189.965 22.1851 190.315 22.2725C190.686 22.338 191.025 22.3817 191.331 22.4035V22.9607H185.69C184.597 21.2128 183.405 19.4213 182.115 17.5861C181.612 16.8651 181.087 16.1441 180.541 15.4231C179.994 14.7022 179.425 13.9593 178.835 13.1947L178.441 12.6703H175.654V20.1751C175.654 20.5683 175.719 20.9507 175.85 21.3221C175.982 21.6716 176.299 21.9338 176.802 22.1086C176.998 22.1741 177.294 22.2397 177.687 22.3052C178.103 22.3489 178.474 22.3817 178.802 22.4035V22.9607H169.815V22.4035C170.122 22.3817 170.471 22.3489 170.865 22.3052C171.28 22.2397 171.576 22.1741 171.751 22.1086H171.783C172.505 21.759 172.866 21.1145 172.866 20.1751V3.75636C172.866 3.38494 172.8 3.01353 172.669 2.64212C172.56 2.24885 172.253 1.96483 171.751 1.79005C171.51 1.7245 171.204 1.65896 170.832 1.59342C170.482 1.50603 170.143 1.44048 169.815 1.39679V0.872437H180.016C182.027 0.872437 183.635 1.2657 184.837 2.05222C186.171 2.96984 186.838 4.26978 186.838 5.95207C186.838 7.63436 186.357 8.91246 185.395 9.78638H185.362C184.509 10.6384 183.23 11.3048 181.525 11.7855L181.098 11.9165L181.361 12.277C181.885 12.9543 182.355 13.577 182.771 14.145C183.208 14.7131 183.613 15.2374 183.984 15.7181L184.181 16.013L186.904 19.7162C187.363 20.3498 187.789 20.8305 188.183 21.1582C188.576 21.4641 188.992 21.7263 189.429 21.9447V21.9775ZM178.081 11.9165C178.846 11.9165 179.557 11.7855 180.213 11.5233C180.89 11.2611 181.47 10.8897 181.951 10.409C183 9.40404 183.525 8.03855 183.525 6.31256C183.525 4.82691 183.11 3.66897 182.279 2.83875C181.426 1.98668 180.234 1.56064 178.704 1.56064H175.654V11.9165H178.081Z" fill="black" fill-opacity="0.2"/>
<path d="M189.429 21.9775C189.67 22.0867 189.965 22.1851 190.315 22.2725C190.686 22.338 191.025 22.3817 191.331 22.4035V22.9607H185.69C184.597 21.2128 183.405 19.4213 182.115 17.5861C181.612 16.8651 181.087 16.1441 180.541 15.4231C179.994 14.7022 179.425 13.9593 178.835 13.1947L178.441 12.6703H175.654V20.1751C175.654 20.5683 175.719 20.9507 175.85 21.3221C175.982 21.6716 176.299 21.9338 176.802 22.1086C176.998 22.1741 177.294 22.2397 177.687 22.3052C178.103 22.3489 178.474 22.3817 178.802 22.4035V22.9607H169.815V22.4035C170.122 22.3817 170.471 22.3489 170.865 22.3052C171.28 22.2397 171.576 22.1741 171.751 22.1086H171.783C172.505 21.759 172.866 21.1145 172.866 20.1751V3.75636C172.866 3.38494 172.8 3.01353 172.669 2.64212C172.56 2.24885 172.253 1.96483 171.751 1.79005C171.51 1.7245 171.204 1.65896 170.832 1.59342C170.482 1.50603 170.143 1.44048 169.815 1.39679V0.872437H180.016C182.027 0.872437 183.635 1.2657 184.837 2.05222C186.171 2.96984 186.838 4.26978 186.838 5.95207C186.838 7.63436 186.357 8.91246 185.395 9.78638H185.362C184.509 10.6384 183.23 11.3048 181.525 11.7855L181.098 11.9165L181.361 12.277C181.885 12.9543 182.355 13.577 182.771 14.145C183.208 14.7131 183.613 15.2374 183.984 15.7181L184.181 16.013L186.904 19.7162C187.363 20.3498 187.789 20.8305 188.183 21.1582C188.576 21.4641 188.992 21.7263 189.429 21.9447V21.9775ZM178.081 11.9165C178.846 11.9165 179.557 11.7855 180.213 11.5233C180.89 11.2611 181.47 10.8897 181.951 10.409C183 9.40404 183.525 8.03855 183.525 6.31256C183.525 4.82691 183.11 3.66897 182.279 2.83875C181.426 1.98668 180.234 1.56064 178.704 1.56064H175.654V11.9165H178.081Z" fill="black" fill-opacity="0.2"/>
<path d="M212.327 21.9775C212.568 22.0867 212.863 22.1851 213.213 22.2725C213.585 22.338 213.913 22.3817 214.197 22.4035V22.9607H208.326C205.964 19.3339 203.045 15.6635 199.569 11.9493L199.47 11.851L199.437 11.7527C201.34 10.2233 203.144 8.48643 204.849 6.54197C205.724 5.53696 206.358 4.73951 206.752 4.14962C207.145 3.53788 207.342 2.98076 207.342 2.47826C207.342 2.19424 207.2 1.98668 206.916 1.85559C206.653 1.7245 206.391 1.62619 206.128 1.56064C205.626 1.4514 205.243 1.39679 204.98 1.39679V0.872437H212.885V1.39679C212.841 1.39679 212.797 1.40771 212.754 1.42956C212.732 1.42956 212.699 1.42956 212.655 1.42956H212.623C212.513 1.42956 212.404 1.44048 212.295 1.46233C212.185 1.48418 212.054 1.50603 211.901 1.52787C211.835 1.54972 211.715 1.58249 211.54 1.62619C211.103 1.73543 210.677 1.88836 210.261 2.085C209.846 2.28163 209.507 2.51103 209.244 2.7732V2.80598C209.004 3.0463 208.763 3.30848 208.523 3.5925C208.304 3.85467 208.074 4.10593 207.834 4.34625C206.916 5.39495 205.986 6.43273 205.046 7.45958C204.128 8.46458 203.198 9.41497 202.258 10.3107L202.061 10.5074L202.258 10.7368C203.198 11.8292 203.975 12.7468 204.587 13.4896C205.221 14.2324 205.768 14.8988 206.227 15.4887H206.26C206.85 16.2097 207.419 16.9197 207.965 17.6189C208.534 18.318 209.102 19.0171 209.671 19.7162C210.392 20.6339 211.267 21.3767 212.295 21.9447L212.327 21.9775ZM199.765 1.79005C199 2.03037 198.618 2.66396 198.618 3.69082V20.044C198.618 20.9397 198.989 21.5733 199.733 21.9447V21.9775H199.765C199.919 22.0212 200.181 22.0977 200.553 22.2069C200.946 22.2943 201.307 22.3598 201.635 22.4035V22.9607H192.845V22.4035C193.151 22.3817 193.501 22.3598 193.895 22.338C194.288 22.2943 194.572 22.2288 194.747 22.1414C195.469 21.7918 195.83 21.1582 195.83 20.2406V3.85468C195.83 3.39587 195.742 3.02445 195.567 2.74043C195.414 2.43456 195.141 2.18331 194.747 1.98668V1.95391C194.485 1.84467 194.179 1.74635 193.829 1.65896C193.479 1.54972 193.151 1.47325 192.845 1.42956V0.872437H201.635V1.39679C201.329 1.44048 200.99 1.4951 200.618 1.56064C200.247 1.62619 199.962 1.70266 199.765 1.79005Z" fill="#131313"/>
<path d="M212.327 21.9775C212.568 22.0867 212.863 22.1851 213.213 22.2725C213.585 22.338 213.913 22.3817 214.197 22.4035V22.9607H208.326C205.964 19.3339 203.045 15.6635 199.569 11.9493L199.47 11.851L199.437 11.7527C201.34 10.2233 203.144 8.48643 204.849 6.54197C205.724 5.53696 206.358 4.73951 206.752 4.14962C207.145 3.53788 207.342 2.98076 207.342 2.47826C207.342 2.19424 207.2 1.98668 206.916 1.85559C206.653 1.7245 206.391 1.62619 206.128 1.56064C205.626 1.4514 205.243 1.39679 204.98 1.39679V0.872437H212.885V1.39679C212.841 1.39679 212.797 1.40771 212.754 1.42956C212.732 1.42956 212.699 1.42956 212.655 1.42956H212.623C212.513 1.42956 212.404 1.44048 212.295 1.46233C212.185 1.48418 212.054 1.50603 211.901 1.52787C211.835 1.54972 211.715 1.58249 211.54 1.62619C211.103 1.73543 210.677 1.88836 210.261 2.085C209.846 2.28163 209.507 2.51103 209.244 2.7732V2.80598C209.004 3.0463 208.763 3.30848 208.523 3.5925C208.304 3.85467 208.074 4.10593 207.834 4.34625C206.916 5.39495 205.986 6.43273 205.046 7.45958C204.128 8.46458 203.198 9.41497 202.258 10.3107L202.061 10.5074L202.258 10.7368C203.198 11.8292 203.975 12.7468 204.587 13.4896C205.221 14.2324 205.768 14.8988 206.227 15.4887H206.26C206.85 16.2097 207.419 16.9197 207.965 17.6189C208.534 18.318 209.102 19.0171 209.671 19.7162C210.392 20.6339 211.267 21.3767 212.295 21.9447L212.327 21.9775ZM199.765 1.79005C199 2.03037 198.618 2.66396 198.618 3.69082V20.044C198.618 20.9397 198.989 21.5733 199.733 21.9447V21.9775H199.765C199.919 22.0212 200.181 22.0977 200.553 22.2069C200.946 22.2943 201.307 22.3598 201.635 22.4035V22.9607H192.845V22.4035C193.151 22.3817 193.501 22.3598 193.895 22.338C194.288 22.2943 194.572 22.2288 194.747 22.1414C195.469 21.7918 195.83 21.1582 195.83 20.2406V3.85468C195.83 3.39587 195.742 3.02445 195.567 2.74043C195.414 2.43456 195.141 2.18331 194.747 1.98668V1.95391C194.485 1.84467 194.179 1.74635 193.829 1.65896C193.479 1.54972 193.151 1.47325 192.845 1.42956V0.872437H201.635V1.39679C201.329 1.44048 200.99 1.4951 200.618 1.56064C200.247 1.62619 199.962 1.70266 199.765 1.79005Z" fill="black" fill-opacity="0.2"/>
<path d="M212.327 21.9775C212.568 22.0867 212.863 22.1851 213.213 22.2725C213.585 22.338 213.913 22.3817 214.197 22.4035V22.9607H208.326C205.964 19.3339 203.045 15.6635 199.569 11.9493L199.47 11.851L199.437 11.7527C201.34 10.2233 203.144 8.48643 204.849 6.54197C205.724 5.53696 206.358 4.73951 206.752 4.14962C207.145 3.53788 207.342 2.98076 207.342 2.47826C207.342 2.19424 207.2 1.98668 206.916 1.85559C206.653 1.7245 206.391 1.62619 206.128 1.56064C205.626 1.4514 205.243 1.39679 204.98 1.39679V0.872437H212.885V1.39679C212.841 1.39679 212.797 1.40771 212.754 1.42956C212.732 1.42956 212.699 1.42956 212.655 1.42956H212.623C212.513 1.42956 212.404 1.44048 212.295 1.46233C212.185 1.48418 212.054 1.50603 211.901 1.52787C211.835 1.54972 211.715 1.58249 211.54 1.62619C211.103 1.73543 210.677 1.88836 210.261 2.085C209.846 2.28163 209.507 2.51103 209.244 2.7732V2.80598C209.004 3.0463 208.763 3.30848 208.523 3.5925C208.304 3.85467 208.074 4.10593 207.834 4.34625C206.916 5.39495 205.986 6.43273 205.046 7.45958C204.128 8.46458 203.198 9.41497 202.258 10.3107L202.061 10.5074L202.258 10.7368C203.198 11.8292 203.975 12.7468 204.587 13.4896C205.221 14.2324 205.768 14.8988 206.227 15.4887H206.26C206.85 16.2097 207.419 16.9197 207.965 17.6189C208.534 18.318 209.102 19.0171 209.671 19.7162C210.392 20.6339 211.267 21.3767 212.295 21.9447L212.327 21.9775ZM199.765 1.79005C199 2.03037 198.618 2.66396 198.618 3.69082V20.044C198.618 20.9397 198.989 21.5733 199.733 21.9447V21.9775H199.765C199.919 22.0212 200.181 22.0977 200.553 22.2069C200.946 22.2943 201.307 22.3598 201.635 22.4035V22.9607H192.845V22.4035C193.151 22.3817 193.501 22.3598 193.895 22.338C194.288 22.2943 194.572 22.2288 194.747 22.1414C195.469 21.7918 195.83 21.1582 195.83 20.2406V3.85468C195.83 3.39587 195.742 3.02445 195.567 2.74043C195.414 2.43456 195.141 2.18331 194.747 1.98668V1.95391C194.485 1.84467 194.179 1.74635 193.829 1.65896C193.479 1.54972 193.151 1.47325 192.845 1.42956V0.872437H201.635V1.39679C201.329 1.44048 200.99 1.4951 200.618 1.56064C200.247 1.62619 199.962 1.70266 199.765 1.79005Z" fill="black" fill-opacity="0.2"/>
<path d="M229.164 13.0308C229.623 13.5551 229.951 14.1232 230.148 14.7349C230.367 15.3467 230.476 16.0349 230.476 16.7996C230.476 18.744 229.776 20.3171 228.377 21.5187C226.89 22.764 225.119 23.3867 223.064 23.3867C222.123 23.3867 221.161 23.2447 220.177 22.9607C219.193 22.6985 218.319 22.3271 217.553 21.8464L217.291 21.6826L216.537 22.9607H215.717L215.52 15.8164H216.241C216.504 16.7122 216.81 17.5424 217.16 18.3071C217.51 19.0499 217.991 19.7709 218.603 20.47V20.5028C219.237 21.1801 219.915 21.6935 220.636 22.0431C221.074 22.2397 221.511 22.3926 221.948 22.5019C222.386 22.6111 222.856 22.6657 223.359 22.6657C224.889 22.6657 226.059 22.2615 226.868 21.4532C227.59 20.7103 227.951 19.6726 227.951 18.3398C227.951 17.2911 227.666 16.3735 227.098 15.587C226.529 14.7786 225.742 14.156 224.736 13.719H224.703C224.616 13.6753 224.529 13.6425 224.441 13.6207C224.354 13.5988 224.266 13.5661 224.179 13.5224C223.501 13.282 222.779 13.0199 222.014 12.7358C221.249 12.43 220.582 12.135 220.013 11.851C218.658 11.283 217.663 10.5511 217.029 9.65529C216.416 8.73768 216.11 7.59067 216.11 6.21425C216.11 5.44957 216.274 4.71767 216.602 4.01853C216.93 3.29755 217.411 2.64212 218.045 2.05222C218.658 1.50603 219.357 1.09091 220.144 0.806892C220.954 0.52287 221.806 0.380859 222.703 0.380859C223.665 0.380859 224.529 0.52287 225.294 0.806892C226.059 1.06907 226.835 1.42956 227.623 1.88836L227.885 2.05222L228.607 0.872437H229.427L229.525 7.7873H228.771C228.552 7.02262 228.3 6.24702 228.016 5.46049C227.732 4.65212 227.349 3.92022 226.868 3.26478C226.3 2.52195 225.655 1.98668 224.933 1.65896C224.233 1.30939 223.424 1.13461 222.506 1.13461C221.937 1.13461 221.413 1.23293 220.932 1.42956C220.451 1.60434 220.024 1.85559 219.652 2.18331C219.303 2.51103 219.018 2.90429 218.8 3.3631C218.603 3.80006 218.505 4.28071 218.505 4.80506C218.505 6.77137 219.467 8.21333 221.391 9.13094C221.85 9.34942 222.298 9.54605 222.736 9.72084C223.173 9.89562 223.61 10.0704 224.048 10.2452C224.354 10.3544 224.649 10.4746 224.933 10.6057C225.239 10.7149 225.545 10.8351 225.851 10.9662C227.251 11.5342 228.355 12.2224 229.164 13.0308Z" fill="#131313"/>
<path d="M229.164 13.0308C229.623 13.5551 229.951 14.1232 230.148 14.7349C230.367 15.3467 230.476 16.0349 230.476 16.7996C230.476 18.744 229.776 20.3171 228.377 21.5187C226.89 22.764 225.119 23.3867 223.064 23.3867C222.123 23.3867 221.161 23.2447 220.177 22.9607C219.193 22.6985 218.319 22.3271 217.553 21.8464L217.291 21.6826L216.537 22.9607H215.717L215.52 15.8164H216.241C216.504 16.7122 216.81 17.5424 217.16 18.3071C217.51 19.0499 217.991 19.7709 218.603 20.47V20.5028C219.237 21.1801 219.915 21.6935 220.636 22.0431C221.074 22.2397 221.511 22.3926 221.948 22.5019C222.386 22.6111 222.856 22.6657 223.359 22.6657C224.889 22.6657 226.059 22.2615 226.868 21.4532C227.59 20.7103 227.951 19.6726 227.951 18.3398C227.951 17.2911 227.666 16.3735 227.098 15.587C226.529 14.7786 225.742 14.156 224.736 13.719H224.703C224.616 13.6753 224.529 13.6425 224.441 13.6207C224.354 13.5988 224.266 13.5661 224.179 13.5224C223.501 13.282 222.779 13.0199 222.014 12.7358C221.249 12.43 220.582 12.135 220.013 11.851C218.658 11.283 217.663 10.5511 217.029 9.65529C216.416 8.73768 216.11 7.59067 216.11 6.21425C216.11 5.44957 216.274 4.71767 216.602 4.01853C216.93 3.29755 217.411 2.64212 218.045 2.05222C218.658 1.50603 219.357 1.09091 220.144 0.806892C220.954 0.52287 221.806 0.380859 222.703 0.380859C223.665 0.380859 224.529 0.52287 225.294 0.806892C226.059 1.06907 226.835 1.42956 227.623 1.88836L227.885 2.05222L228.607 0.872437H229.427L229.525 7.7873H228.771C228.552 7.02262 228.3 6.24702 228.016 5.46049C227.732 4.65212 227.349 3.92022 226.868 3.26478C226.3 2.52195 225.655 1.98668 224.933 1.65896C224.233 1.30939 223.424 1.13461 222.506 1.13461C221.937 1.13461 221.413 1.23293 220.932 1.42956C220.451 1.60434 220.024 1.85559 219.652 2.18331C219.303 2.51103 219.018 2.90429 218.8 3.3631C218.603 3.80006 218.505 4.28071 218.505 4.80506C218.505 6.77137 219.467 8.21333 221.391 9.13094C221.85 9.34942 222.298 9.54605 222.736 9.72084C223.173 9.89562 223.61 10.0704 224.048 10.2452C224.354 10.3544 224.649 10.4746 224.933 10.6057C225.239 10.7149 225.545 10.8351 225.851 10.9662C227.251 11.5342 228.355 12.2224 229.164 13.0308Z" fill="black" fill-opacity="0.2"/>
<path d="M229.164 13.0308C229.623 13.5551 229.951 14.1232 230.148 14.7349C230.367 15.3467 230.476 16.0349 230.476 16.7996C230.476 18.744 229.776 20.3171 228.377 21.5187C226.89 22.764 225.119 23.3867 223.064 23.3867C222.123 23.3867 221.161 23.2447 220.177 22.9607C219.193 22.6985 218.319 22.3271 217.553 21.8464L217.291 21.6826L216.537 22.9607H215.717L215.52 15.8164H216.241C216.504 16.7122 216.81 17.5424 217.16 18.3071C217.51 19.0499 217.991 19.7709 218.603 20.47V20.5028C219.237 21.1801 219.915 21.6935 220.636 22.0431C221.074 22.2397 221.511 22.3926 221.948 22.5019C222.386 22.6111 222.856 22.6657 223.359 22.6657C224.889 22.6657 226.059 22.2615 226.868 21.4532C227.59 20.7103 227.951 19.6726 227.951 18.3398C227.951 17.2911 227.666 16.3735 227.098 15.587C226.529 14.7786 225.742 14.156 224.736 13.719H224.703C224.616 13.6753 224.529 13.6425 224.441 13.6207C224.354 13.5988 224.266 13.5661 224.179 13.5224C223.501 13.282 222.779 13.0199 222.014 12.7358C221.249 12.43 220.582 12.135 220.013 11.851C218.658 11.283 217.663 10.5511 217.029 9.65529C216.416 8.73768 216.11 7.59067 216.11 6.21425C216.11 5.44957 216.274 4.71767 216.602 4.01853C216.93 3.29755 217.411 2.64212 218.045 2.05222C218.658 1.50603 219.357 1.09091 220.144 0.806892C220.954 0.52287 221.806 0.380859 222.703 0.380859C223.665 0.380859 224.529 0.52287 225.294 0.806892C226.059 1.06907 226.835 1.42956 227.623 1.88836L227.885 2.05222L228.607 0.872437H229.427L229.525 7.7873H228.771C228.552 7.02262 228.3 6.24702 228.016 5.46049C227.732 4.65212 227.349 3.92022 226.868 3.26478C226.3 2.52195 225.655 1.98668 224.933 1.65896C224.233 1.30939 223.424 1.13461 222.506 1.13461C221.937 1.13461 221.413 1.23293 220.932 1.42956C220.451 1.60434 220.024 1.85559 219.652 2.18331C219.303 2.51103 219.018 2.90429 218.8 3.3631C218.603 3.80006 218.505 4.28071 218.505 4.80506C218.505 6.77137 219.467 8.21333 221.391 9.13094C221.85 9.34942 222.298 9.54605 222.736 9.72084C223.173 9.89562 223.61 10.0704 224.048 10.2452C224.354 10.3544 224.649 10.4746 224.933 10.6057C225.239 10.7149 225.545 10.8351 225.851 10.9662C227.251 11.5342 228.355 12.2224 229.164 13.0308Z" fill="black" fill-opacity="0.2"/>
</svg>
