<svg width="25" height="24" viewBox="0 0 25 24" fill="none" xmlns="http://www.w3.org/2000/svg">
<path d="M12.1031 24C18.7359 24 24.1129 18.6274 24.1129 12C24.1129 5.37258 18.7359 0 12.1031 0C5.47023 0 0.0932617 5.37258 0.0932617 12C0.0932617 18.6274 5.47023 24 12.1031 24Z" fill="#0000FF"/>
<path fill-rule="evenodd" clip-rule="evenodd" d="M4.97314 10.1032L6.52661 10.8764C6.51023 11.7543 6.44536 13.4276 6.27108 14.2151C6.07059 15.1192 4.87944 16.0973 4.77002 16.4279C5.47764 16.4292 5.71547 16.1025 6.19377 15.969C6.55151 16.2708 6.45715 16.7238 6.77886 16.9065C7.42095 16.7147 7.26634 14.8043 7.21654 14.2937C7.11761 13.2855 7.21981 12.2728 7.26109 11.2678C7.54807 11.3327 11.2814 13.1782 11.8481 13.4577C12.4319 13.7451 12.2314 13.7202 13.3846 13.1376C14.3851 12.6322 15.3784 12.1431 16.3933 11.6403C16.8834 11.3975 19.1739 10.2963 19.4373 10.1032L15.8698 8.56146C15.3836 8.36179 12.4601 7.06162 12.2445 7.09436C11.9962 7.13233 5.07469 10.0207 4.97314 10.1032Z" fill="white"/>
<path fill-rule="evenodd" clip-rule="evenodd" d="M8.46533 13.9039C8.60751 14.1246 11.8115 15.917 12.2793 16.1802L14.1584 15.0797C14.731 14.7413 15.5068 14.3256 16.0139 13.9675L16.0146 12.2693C15.4282 12.4611 12.5269 14.135 12.2891 14.1193C11.9471 14.0971 9.08974 12.4643 8.46599 12.2607V13.9039H8.46533Z" fill="white"/>
</svg>
